<svg width="172" height="50" viewBox="0 0 172 50" fill="none" xmlns="http://www.w3.org/2000/svg">
<g clip-path="url(#clip0)">
<path d="M165.643 50.0001H6.70527C5.8681 50.0082 5.03769 49.8522 4.26262 49.541C3.48756 49.2298 2.78342 48.7698 2.19142 48.1878C1.59943 47.6058 1.13146 46.9136 0.814928 46.1516C0.498392 45.3896 0.339641 44.5733 0.347968 43.7503V6.24986C0.339641 5.42685 0.498392 4.61047 0.814928 3.84852C1.13146 3.08656 1.59943 2.39433 2.19142 1.81234C2.78342 1.23036 3.48756 0.770309 4.26262 0.459126C5.03769 0.147943 5.8681 -0.00812354 6.70527 6.19437e-05H165.643C166.48 -0.00812354 167.31 0.147943 168.085 0.459126C168.861 0.770309 169.565 1.23036 170.157 1.81234C170.749 2.39433 171.217 3.08656 171.533 3.84852C171.85 4.61047 172.008 5.42685 172 6.24986V43.7503C172.008 44.5733 171.85 45.3896 171.533 46.1516C171.217 46.9136 170.749 47.6058 170.157 48.1878C169.565 48.7698 168.861 49.2298 168.085 49.541C167.31 49.8522 166.48 50.0082 165.643 50.0001Z" fill="black"/>
<path d="M165.643 0.999194C167.057 1.00723 168.411 1.563 169.41 2.54594C170.41 3.52888 170.976 4.85973 170.984 6.2498V43.7502C170.976 45.1403 170.41 46.4711 169.41 47.4541C168.411 48.437 167.057 48.9928 165.643 49.0008H6.70527C5.29129 48.9928 3.93755 48.437 2.9377 47.4541C1.93785 46.4711 1.37252 45.1403 1.36435 43.7502V6.2498C1.37252 4.85973 1.93785 3.52888 2.9377 2.54594C3.93755 1.563 5.29129 1.00723 6.70527 0.999194H165.643ZM165.643 0H6.70527C5.02067 0.00467771 3.40643 0.664639 2.21524 1.83569C1.02404 3.00674 0.352726 4.59369 0.347968 6.2498V43.7502C0.339641 44.5732 0.498392 45.3896 0.814928 46.1516C1.13146 46.9135 1.59943 47.6057 2.19142 48.1877C2.78342 48.7697 3.48756 49.2298 4.26262 49.5409C5.03769 49.8521 5.8681 50.0082 6.70527 50H165.643C166.48 50.0082 167.31 49.8521 168.085 49.5409C168.861 49.2298 169.565 48.7697 170.157 48.1877C170.749 47.6057 171.217 46.9135 171.533 46.1516C171.85 45.3896 172.008 44.5732 172 43.7502V6.2498C171.995 4.59369 171.324 3.00674 170.133 1.83569C168.942 0.664639 167.327 0.00467771 165.643 0V0Z" fill="#A6A6A6"/>
<path d="M60.6168 12.7511C60.6458 13.2051 60.582 13.6602 60.4291 14.0895C60.2762 14.5188 60.0374 14.9136 59.7267 15.2507C59.1764 15.8009 58.4712 16.1766 57.7019 16.3297C56.9326 16.4827 56.1344 16.4061 55.4098 16.1096C54.6851 15.8131 54.0673 15.3103 53.6356 14.6659C53.2039 14.0214 52.9782 13.2648 52.9874 12.4933C52.9839 11.9844 53.0833 11.4799 53.2798 11.0091C53.4763 10.5382 53.766 10.1105 54.132 9.75064C54.498 9.3908 54.9332 9.10602 55.4121 8.91286C55.891 8.71969 56.4042 8.62199 56.9218 8.62542C57.4535 8.63102 57.9763 8.75966 58.448 9.00092C58.9029 9.18705 59.2991 9.48914 59.5955 9.87602L58.9595 10.5013C58.7187 10.2025 58.407 9.96627 58.0517 9.81342C57.6965 9.66057 57.3085 9.59574 56.9218 9.62461C56.5373 9.60874 56.1542 9.67931 55.8017 9.83095C55.4492 9.9826 55.1365 10.2113 54.8874 10.4997C54.5819 10.7622 54.3425 11.0908 54.188 11.4596C54.0336 11.8285 53.9683 12.2275 53.9972 12.6254C53.9683 13.0233 54.0336 13.4223 54.188 13.7912C54.3425 14.16 54.5819 14.4886 54.8874 14.7511C55.4413 15.2666 56.1608 15.576 56.9218 15.6262C57.3252 15.643 57.7275 15.5735 58.1008 15.4224C58.4742 15.2713 58.8097 15.0423 59.0841 14.7511C59.2876 14.5562 59.4489 14.3228 59.5582 14.0649C59.6676 13.807 59.7226 13.5301 59.7201 13.2507H56.9218V12.2515H60.6086V12.7511H60.6168ZM66.466 9.62461H63.0316V12.0001H66.2102V12.8752H63.0316V15.2507H66.4643V16.2499H62.0152V8.75112H66.466V9.62461ZM70.6626 16.2499H69.6463V9.62461H67.4823V8.75112H72.8233V9.62461H70.661L70.6626 16.2499ZM76.5118 16.2499V8.75112H77.5281V16.2515L76.5118 16.2499ZM81.8527 16.2499H80.8347V9.62461H78.6724V8.75112H83.8854V9.62461H81.7232V16.2499H81.8527ZM93.9312 15.2507C93.381 15.8014 92.6757 16.1777 91.9061 16.3311C91.1366 16.4844 90.3379 16.4079 89.613 16.1114C88.888 15.8148 88.2699 15.3118 87.8381 14.667C87.4064 14.0222 87.1808 13.2652 87.1903 12.4933C87.1903 11.4655 87.6056 10.4799 88.3448 9.75315C89.0841 9.02643 90.0867 8.61816 91.1321 8.61816C92.1775 8.61816 93.1801 9.02643 93.9193 9.75315C94.6586 10.4799 95.0738 11.4655 95.0738 12.4933C95.0894 13.0059 94.9957 13.5162 94.7986 13.9911C94.6016 14.466 94.3055 14.8951 93.9296 15.2507H93.9312ZM89.1001 14.6254C89.6395 15.1622 90.3675 15.4754 91.1345 15.5005C91.519 15.5164 91.9021 15.4458 92.2547 15.2942C92.6072 15.1425 92.9199 14.9138 93.169 14.6254C93.7406 14.0584 94.0601 13.2916 94.0575 12.4933C94.0864 12.0954 94.0211 11.6963 93.8667 11.3275C93.7122 10.9586 93.4728 10.6301 93.1673 10.3676C92.628 9.83078 91.8999 9.5176 91.1329 9.49246C90.7484 9.47658 90.3653 9.54716 90.0128 9.6988C89.6603 9.85045 89.3476 10.0792 89.0985 10.3676C88.5279 10.9328 88.2079 11.6969 88.2083 12.4933C88.1783 12.8922 88.2431 13.2925 88.3976 13.6626C88.5521 14.0326 88.7921 14.3622 89.0985 14.6254H89.1001ZM96.4771 16.2499V8.75112H97.6246L101.311 14.6254V8.75112H102.33V16.2515H101.311L97.3771 10.1274V16.2515H96.4869L96.4771 16.2499Z" fill="white" stroke="white" stroke-width="0.2" stroke-miterlimit="10"/>
<path d="M86.9364 27.249C86.214 27.2331 85.4958 27.3613 84.8252 27.6258C84.1547 27.8903 83.5455 28.2856 83.0346 28.7879C82.5237 29.2902 82.1216 29.889 81.8525 30.5483C81.5835 31.2075 81.4531 31.9135 81.4692 32.6237C81.4638 33.331 81.6014 34.0323 81.8743 34.6868C82.1471 35.3413 82.5496 35.9359 83.0583 36.4361C83.5671 36.9363 84.172 37.332 84.8377 37.6002C85.5035 37.8684 86.2169 38.0037 86.9364 37.9984C87.6587 38.0142 88.3769 37.886 89.0475 37.6215C89.7181 37.357 90.3272 36.9617 90.8381 36.4594C91.349 35.9572 91.7511 35.3583 92.0202 34.6991C92.2892 34.0398 92.4196 33.3338 92.4035 32.6237C92.4304 31.9108 92.3074 31.2 92.0421 30.536C91.7769 29.872 91.3751 29.2689 90.862 28.7644C90.3489 28.2599 89.7354 27.865 89.0599 27.6042C88.3845 27.3435 87.6615 27.2225 86.9364 27.249ZM86.9364 35.7486C86.1055 35.6829 85.3302 35.3121 84.7649 34.7099C84.1995 34.1077 83.8856 33.3182 83.8856 32.4988C83.8856 31.6793 84.1995 30.8899 84.7649 30.2877C85.3302 29.6854 86.1055 29.3146 86.9364 29.249C87.3573 29.2525 87.773 29.3409 88.1578 29.5085C88.5427 29.6762 88.8885 29.9196 89.1739 30.2237C89.4593 30.5279 89.6783 30.8863 89.8173 31.2769C89.9564 31.6675 90.0125 32.082 89.9822 32.4947C90.0031 32.9059 89.9406 33.317 89.7982 33.7042C89.6559 34.0914 89.4366 34.4468 89.1531 34.7498C88.8696 35.0528 88.5276 35.2973 88.147 35.469C87.7664 35.6408 87.3549 35.7364 86.9364 35.7502V35.7486ZM75.1119 27.249C74.3895 27.2331 73.6714 27.3613 73.0008 27.6258C72.3302 27.8903 71.7211 28.2856 71.2101 28.7879C70.6992 29.2902 70.2971 29.889 70.0281 30.5483C69.759 31.2075 69.6286 31.9135 69.6447 32.6237C69.6393 33.331 69.777 34.0323 70.0498 34.6868C70.3226 35.3413 70.7251 35.9359 71.2339 36.4361C71.7426 36.9363 72.3475 37.332 73.0133 37.6002C73.679 37.8684 74.3924 38.0037 75.1119 37.9984C75.8343 38.0142 76.5524 37.886 77.223 37.6215C77.8936 37.357 78.5027 36.9617 79.0137 36.4594C79.5246 35.9572 79.9267 35.3583 80.1957 34.6991C80.4648 34.0398 80.5952 33.3338 80.5791 32.6237C80.6059 31.9108 80.4829 31.2 80.2177 30.536C79.9524 29.872 79.5507 29.2689 79.0376 28.7644C78.5244 28.2599 77.9109 27.865 77.2355 27.6042C76.56 27.3435 75.8371 27.2225 75.1119 27.249ZM75.1119 35.7486C74.281 35.6829 73.5057 35.3121 72.9404 34.7099C72.3751 34.1077 72.0612 33.3182 72.0612 32.4988C72.0612 31.6793 72.3751 30.8899 72.9404 30.2877C73.5057 29.6854 74.281 29.3146 75.1119 29.249C75.5332 29.2519 75.9495 29.3397 76.3349 29.5071C76.7203 29.6744 77.0667 29.9178 77.3527 30.222C77.6386 30.5262 77.8581 30.8849 77.9974 31.2758C78.1367 31.6667 78.193 32.0816 78.1627 32.4947C78.1836 32.9063 78.1209 33.3178 77.9782 33.7053C77.8356 34.0928 77.6158 34.4484 77.3318 34.7515C77.0478 35.0545 76.7052 35.2989 76.3241 35.4704C75.9429 35.6419 75.5308 35.737 75.1119 35.7502V35.7486ZM60.9989 28.8735V31.1297H66.4661C66.3871 32.2024 65.9384 33.2166 65.194 34.0048C64.6462 34.5455 63.9906 34.9689 63.2684 35.2484C62.5462 35.528 61.773 35.6577 60.9973 35.6293C60.1996 35.6371 59.4084 35.4862 58.6715 35.1858C57.9345 34.8855 57.267 34.4417 56.7088 33.8813C56.1507 33.3209 55.7136 32.6553 55.4237 31.9247C55.1338 31.194 54.9972 30.4132 55.022 29.6293C55.0083 28.8483 55.1526 28.0724 55.4464 27.3467C55.7403 26.621 56.1779 25.9599 56.7338 25.4018C57.2898 24.8438 57.9529 24.3998 58.6848 24.0958C59.4167 23.7918 60.2028 23.6338 60.9973 23.6309C62.5521 23.6452 64.0467 24.2237 65.194 25.2554L66.8464 23.6309C65.3135 22.1712 63.2592 21.3611 61.1252 21.3747C58.8913 21.3876 56.7506 22.2569 55.1586 23.7976C53.5666 25.3383 52.6489 27.4288 52.6007 29.6245C52.6489 31.8201 53.5666 33.9107 55.1586 35.4514C56.7506 36.9921 58.8913 37.8614 61.1252 37.8743C62.2188 37.9339 63.3121 37.7514 64.3244 37.3403C65.3368 36.9291 66.2423 36.2998 66.9743 35.4988C68.3166 34.0725 69.0456 32.191 69.0087 30.2482C69.0353 29.7862 68.9922 29.323 68.8808 28.8735H60.9973H60.9989ZM118.723 30.6253C118.41 29.6655 117.802 28.8251 116.982 28.2204C116.162 27.6158 115.171 27.2768 114.146 27.2506C113.447 27.2543 112.755 27.3988 112.115 27.6751C111.475 27.9515 110.899 28.3538 110.423 28.8574C109.946 29.361 109.58 29.9551 109.347 30.6031C109.113 31.2511 109.017 31.9393 109.064 32.6253C109.044 33.3261 109.168 34.0237 109.428 34.6765C109.689 35.3294 110.079 35.9242 110.578 36.4255C111.077 36.9269 111.672 37.3246 112.33 37.5951C112.988 37.8656 113.695 38.0033 114.408 38C115.294 38.0082 116.168 37.7945 116.946 37.3789C117.725 36.9632 118.383 36.3595 118.859 35.6245L117.079 34.3739C116.805 34.8317 116.415 35.2114 115.947 35.4754C115.479 35.7394 114.948 35.8786 114.408 35.8791C113.848 35.9074 113.292 35.7671 112.815 35.4768C112.338 35.1866 111.962 34.7602 111.738 34.2546L118.985 31.2554L118.731 30.6301L118.723 30.6253ZM111.346 32.3755C111.319 31.6024 111.594 30.8485 112.114 30.2678C112.634 29.6871 113.359 29.3232 114.143 29.2506C114.554 29.2375 114.962 29.3357 115.32 29.5347C115.679 29.7336 115.975 30.0256 116.177 30.3787L111.346 32.3755ZM105.371 37.5004H107.787V21.8678H105.372L105.371 37.5004ZM101.556 28.3755C100.787 27.5956 99.7358 27.1461 98.6313 27.1249C97.2276 27.19 95.9033 27.7843 94.9337 28.7843C93.9641 29.7843 93.4237 31.1132 93.4248 32.4947C93.4148 33.1764 93.5419 33.8533 93.7988 34.4866C94.0557 35.1198 94.4373 35.697 94.9217 36.1848C95.4061 36.6727 95.9837 37.0617 96.6214 37.3295C97.2592 37.5973 97.9444 37.7386 98.6379 37.7453C99.1685 37.7492 99.6936 37.6393 100.177 37.4234C100.66 37.2074 101.089 36.8905 101.435 36.4947H101.562V37.2441C101.635 37.9345 101.447 38.627 101.035 39.1909C100.624 39.7547 100.017 40.151 99.3282 40.3048C98.6398 40.4587 97.9179 40.3596 97.2988 40.0261C96.6796 39.6926 96.2061 39.1479 95.9674 38.4947L93.933 39.3698C94.3382 40.2988 95.0121 41.0903 95.871 41.6458C96.7299 42.2014 97.7359 42.4966 98.7641 42.4947C101.561 42.4947 103.846 40.8702 103.846 36.9943V27.4988H101.551V28.3739L101.556 28.3755ZM98.7608 35.7502C97.9299 35.6845 97.1546 35.3137 96.5893 34.7115C96.024 34.1093 95.7101 33.3199 95.7101 32.5004C95.7101 31.6809 96.024 30.8915 96.5893 30.2893C97.1546 29.6871 97.9299 29.3162 98.7608 29.2506C99.1722 29.2671 99.576 29.3651 99.9479 29.5386C100.32 29.7122 100.652 29.9578 100.925 30.2608C101.199 30.5637 101.407 30.9177 101.537 31.3016C101.668 31.6854 101.718 32.0913 101.685 32.4947C101.72 32.8991 101.671 33.3062 101.541 33.6914C101.411 34.0766 101.203 34.4319 100.93 34.7361C100.657 35.0402 100.324 35.2869 99.9508 35.4612C99.578 35.6354 99.1732 35.7338 98.7608 35.7502ZM129.785 21.8743H124.064V37.5068H126.48V31.6245H129.785C130.458 31.6585 131.13 31.5576 131.762 31.328C132.394 31.0983 132.972 30.7447 133.46 30.2887C133.948 29.8327 134.337 29.2837 134.603 28.6753C134.869 28.0668 135.006 27.4115 135.006 26.7494C135.006 26.0872 134.869 25.432 134.603 24.8235C134.337 24.215 133.948 23.6661 133.46 23.21C132.972 22.754 132.394 22.4004 131.762 22.1708C131.13 21.9411 130.458 21.8403 129.785 21.8743ZM129.913 29.3747H126.48V24H129.913C130.634 23.9969 131.328 24.2686 131.85 24.7582C132.371 25.2478 132.679 25.917 132.71 26.6253C132.682 27.3457 132.378 28.0291 131.859 28.5389C131.341 29.0487 130.646 29.3472 129.913 29.3747ZM144.536 27.1184C143.674 27.0506 142.811 27.2413 142.062 27.6654C141.313 28.0896 140.712 28.7271 140.339 29.4939L142.501 30.369C142.712 29.9955 143.029 29.6901 143.412 29.4899C143.796 29.2897 144.231 29.2032 144.664 29.2409C145.266 29.1967 145.863 29.3783 146.335 29.7494C146.807 30.1205 147.118 30.6534 147.206 31.2409V31.3666C146.467 30.9623 145.636 30.7472 144.79 30.7413C142.495 30.7413 140.213 31.9919 140.213 34.2417C140.234 34.7267 140.353 35.2028 140.562 35.6422C140.772 36.0816 141.069 36.4757 141.435 36.8014C141.801 37.1271 142.229 37.3781 142.695 37.5395C143.161 37.701 143.654 37.7699 144.147 37.7421C144.743 37.7617 145.334 37.6347 145.867 37.3727C146.4 37.1106 146.858 36.7219 147.2 36.2417H147.327V37.4923H149.623V31.4988C149.53 30.2594 148.945 29.1056 147.994 28.2868C147.043 27.468 145.803 27.0501 144.541 27.1233L144.536 27.1184ZM144.282 35.7437C143.519 35.7437 142.375 35.3682 142.375 34.369C142.375 33.1184 143.773 32.7445 144.918 32.7445C145.668 32.7468 146.407 32.9177 147.08 33.2441C146.985 33.9176 146.652 34.537 146.141 34.9947C145.629 35.4525 144.971 35.7198 144.28 35.7502L144.282 35.7437ZM157.632 27.4939L154.962 34.2433H154.834L152.037 27.4988H149.49L153.686 36.9992L151.27 42.2498H153.686L160.172 27.5004H157.629L157.632 27.4939ZM136.272 37.4859H138.687V21.8533H136.27L136.272 37.4859Z" fill="white"/>
<path d="M13.5706 9.37488C13.1782 9.87216 12.9962 10.4991 13.0624 11.1251V38.7496C13.0348 39.3921 13.263 40.0199 13.6985 40.4998L13.8263 40.6255L29.5934 25.1251V24.8753L13.5706 9.37488Z" fill="url(#paint0_linear)"/>
<path d="M34.6781 30.374L29.4651 25.2491V24.8736L34.6781 19.7487L34.806 19.8744L41.0354 23.3748C41.4234 23.5005 41.7611 23.7433 42.0006 24.0687C42.24 24.3941 42.3688 24.7854 42.3688 25.187C42.3688 25.5886 42.24 25.98 42.0006 26.3053C41.7611 26.6307 41.4234 26.8736 41.0354 26.9993L34.6781 30.374Z" fill="url(#paint1_linear)"/>
<path d="M34.8054 30.2498L29.4727 24.9991L13.5713 40.6317C14.2073 41.257 15.0975 41.257 16.2417 40.7574L34.8054 30.2578" fill="url(#paint2_linear)"/>
<path d="M34.8054 19.7486L16.2417 9.37307C15.8548 9.07764 15.3735 8.92738 14.8842 8.94923C14.3948 8.97109 13.9293 9.16363 13.5713 9.49233L29.4727 24.9927L34.8054 19.7486Z" fill="url(#paint3_linear)"/>
<path opacity="0.2" d="M34.6776 30.1239L16.2417 40.3737C15.8777 40.6504 15.4306 40.8004 14.9704 40.8004C14.5103 40.8004 14.0632 40.6504 13.6991 40.3737L13.5713 40.4994L13.6991 40.6251C14.0632 40.9018 14.5103 41.0519 14.9704 41.0519C15.4306 41.0519 15.8777 40.9018 16.2417 40.6251L34.6776 30.1239Z" fill="black"/>
<path opacity="0.12" d="M13.5706 40.3739C13.1782 39.8766 12.9962 39.2496 13.0624 38.6236V38.7494C13.0348 39.3919 13.263 40.0197 13.6985 40.4996V40.3739H13.5706ZM41.0342 26.6236L34.6786 30.124L34.8064 30.2498L41.0359 26.7493C41.3899 26.5993 41.6954 26.3569 41.9194 26.0484C42.1433 25.7399 42.2771 25.3771 42.3063 24.9991C42.3063 25.6244 41.7982 26.1273 41.0359 26.6236H41.0342Z" fill="black"/>
<path opacity="0.25" d="M16.2424 9.50199L41.0372 23.3763C41.7995 23.8759 42.3093 24.3755 42.3093 25.0008C42.2799 24.6227 42.1459 24.2597 41.9216 23.9512C41.6974 23.6427 41.3915 23.4004 41.0372 23.2506L16.2424 9.37467C14.4621 8.37387 13.0637 9.12487 13.0637 11.1249V11.2506C13.0637 9.37467 14.4621 8.49957 16.2424 9.50199Z" fill="white"/>
</g>
<defs>
<linearGradient id="paint0_linear" x1="28.0713" y1="41.6255" x2="2.84144" y2="34.6729" gradientUnits="userSpaceOnUse">
<stop stop-color="#00A0FF"/>
<stop offset="0.007" stop-color="#00A1FF"/>
<stop offset="0.26" stop-color="#00BEFF"/>
<stop offset="0.512" stop-color="#00D2FF"/>
<stop offset="0.76" stop-color="#00DFFF"/>
<stop offset="1" stop-color="#00E3FF"/>
</linearGradient>
<linearGradient id="paint1_linear" x1="43.3624" y1="27.4945" x2="12.5999" y2="27.4945" gradientUnits="userSpaceOnUse">
<stop stop-color="#FFE000"/>
<stop offset="0.409" stop-color="#FFBD00"/>
<stop offset="0.775" stop-color="#FFA500"/>
<stop offset="1" stop-color="#FF9C00"/>
</linearGradient>
<linearGradient id="paint2_linear" x1="31.9176" y1="24.6284" x2="12.1066" y2="-9.18662" gradientUnits="userSpaceOnUse">
<stop stop-color="#FF3A44"/>
<stop offset="1" stop-color="#C31162"/>
</linearGradient>
<linearGradient id="paint3_linear" x1="9.6217" y1="52.2863" x2="18.4059" y2="37.1683" gradientUnits="userSpaceOnUse">
<stop stop-color="#32A071"/>
<stop offset="0.069" stop-color="#2DA771"/>
<stop offset="0.476" stop-color="#15CF74"/>
<stop offset="0.801" stop-color="#06E775"/>
<stop offset="1" stop-color="#00F076"/>
</linearGradient>
<clipPath id="clip0">
<rect width="171.652" height="50" fill="white" transform="translate(0.347839)"/>
</clipPath>
</defs>
</svg>
