<svg width="173" height="50" viewBox="0 0 173 50" fill="none" xmlns="http://www.w3.org/2000/svg">
<g clip-path="url(#clip0)">
<path d="M166.516 50H6.04908C5.25472 50.0004 4.46806 49.8478 3.73407 49.5508C3.00007 49.2538 2.33312 48.8183 1.77135 48.2692C1.20958 47.72 0.763988 47.068 0.46005 46.3504C0.156112 45.6329 -0.000216458 44.8637 2.24946e-07 44.087V5.91297C-0.000216458 5.13628 0.156112 4.36715 0.46005 3.64955C0.763988 2.93196 1.20958 2.27996 1.77135 1.73083C2.33312 1.18169 3.00007 0.74619 3.73407 0.449205C4.46806 0.15222 5.25472 -0.000422649 6.04908 8.78937e-07H166.516C167.311 -0.000422649 168.097 0.15222 168.831 0.449205C169.565 0.74619 170.232 1.18169 170.794 1.73083C171.356 2.27996 171.801 2.93196 172.105 3.64955C172.409 4.36715 172.565 5.13628 172.565 5.91297V44.087C172.565 44.8637 172.409 45.6329 172.105 46.3504C171.801 47.068 171.356 47.72 170.794 48.2692C170.232 48.8183 169.565 49.2538 168.831 49.5508C168.097 49.8478 167.311 50.0004 166.516 50Z" fill="#A6A6A6"/>
<path d="M171.433 44.0869C171.434 44.7149 171.308 45.3368 171.063 45.9172C170.818 46.4975 170.458 47.0247 170.004 47.4687C169.549 47.9126 169.01 48.2646 168.416 48.5042C167.823 48.7439 167.187 48.8666 166.544 48.8653H6.07731C4.77738 48.8688 3.52925 48.3673 2.60728 47.4713C1.68531 46.5753 1.16495 45.358 1.16058 44.0869V5.91125C1.16189 4.6362 1.68016 3.41366 2.6018 2.5116C3.52344 1.60954 4.77326 1.10156 6.07731 1.09901H166.544C167.19 1.09794 167.83 1.22152 168.427 1.46263C169.024 1.70375 169.566 2.05768 170.023 2.50413C170.48 2.95058 170.842 3.48078 171.089 4.06433C171.335 4.64789 171.462 5.27333 171.461 5.90481L171.433 44.0869Z" fill="black"/>
<path d="M38.5278 24.7299C38.5433 23.5077 38.8758 22.3093 39.4942 21.247C40.1125 20.1846 40.9965 19.2931 42.0633 18.6558C41.3859 17.7084 40.491 16.9292 39.4503 16.3807C38.4096 15.8322 37.252 15.5296 36.0702 15.4971C33.5566 15.2263 31.1255 16.9814 29.8283 16.9814C28.5311 16.9814 26.5417 15.5309 24.4154 15.5776C23.0402 15.6246 21.7004 16.0168 20.525 16.7165C19.3495 17.4162 18.378 18.3998 17.7038 19.5728C14.8045 24.4866 16.9588 31.6953 19.7476 35.6357C21.1288 37.5792 22.7573 39.7388 24.8852 39.6647C26.9571 39.5841 27.7301 38.3754 30.2437 38.3754C32.7292 38.3754 33.4479 39.6647 35.6301 39.6179C37.8668 39.5905 39.2761 37.6743 40.6013 35.7034C41.5982 34.3191 42.3627 32.7882 42.866 31.1683C41.5796 30.6256 40.4836 29.7269 39.7128 28.583C38.942 27.4391 38.5301 26.0998 38.5278 24.7299ZM34.4401 12.8782C35.6491 11.4524 36.2432 9.62247 36.0966 7.77588C34.2413 7.97371 32.5278 8.84012 31.2903 10.2062C30.6888 10.8751 30.228 11.6534 29.9341 12.4965C29.6403 13.3396 29.5192 14.2311 29.5778 15.12C30.509 15.1329 31.4309 14.9381 32.2735 14.5502C33.1161 14.1622 33.8571 13.5915 34.4401 12.8814V12.8782Z" fill="white"/>
<path d="M166.516 2.19764e-07H80.5649L114.232 50H166.515C167.309 50.0004 168.095 49.8478 168.829 49.5508C169.563 49.2538 170.23 48.8183 170.792 48.2692C171.354 47.72 171.8 47.068 172.104 46.3504C172.408 45.6329 172.564 44.8637 172.564 44.087V5.91297C172.564 5.13641 172.408 4.36742 172.104 3.64993C171.8 2.93244 171.354 2.28051 170.793 1.7314C170.231 1.18229 169.564 0.746747 168.831 0.449667C168.097 0.152588 167.31 -0.000211522 166.516 2.19764e-07Z" fill="url(#paint0_linear)"/>
<path d="M68.6328 39.3923H65.7336L64.1314 34.5059H58.6082L57.0884 39.3923H54.2716L59.7405 22.7622H63.131L68.6328 39.3923ZM63.6617 32.4544L62.226 28.1031C62.0612 27.6712 61.7843 26.6188 61.3706 24.9717H61.3179C61.1531 25.6744 60.8761 26.7268 60.5168 28.1031L59.1076 32.4544H63.6617ZM82.6907 33.2376C82.7873 35.006 82.1726 36.7412 80.9782 38.0724C80.4989 38.5867 79.9127 38.9948 79.2588 39.2694C78.605 39.544 77.8987 39.6788 77.1873 39.6647C76.4998 39.7193 75.8102 39.5898 75.1923 39.2903C74.5744 38.9908 74.0515 38.5325 73.6798 37.9645V44.2497H70.9733V31.3182C70.9733 30.0499 70.9454 28.7267 70.863 27.3762H73.266L73.4309 29.2666H73.4852C73.8964 28.6466 74.4504 28.1292 75.1027 27.7559C75.755 27.3826 76.4875 27.1637 77.2418 27.1167C77.9961 27.0697 78.7511 27.196 79.4466 27.4853C80.142 27.7747 80.7586 28.2191 81.2469 28.7832C82.2489 30.0546 82.7601 31.6308 82.6907 33.2344V33.2376ZM79.9283 33.3456C79.9652 32.326 79.6859 31.3193 79.1273 30.4576C78.8635 30.0822 78.5082 29.777 78.0935 29.5696C77.6788 29.3622 77.2178 29.2592 76.7522 29.2699C76.0862 29.2701 75.4412 29.4982 74.9292 29.9145C74.3726 30.3479 73.9908 30.9599 73.8512 31.6421C73.7788 31.9058 73.7324 32.1756 73.7127 32.4479V34.4463C73.6892 35.2601 73.984 36.052 74.5368 36.6607C74.8041 36.9509 75.1327 37.181 75.4998 37.3348C75.8669 37.4887 76.2638 37.5628 76.6631 37.5519C77.1311 37.5711 77.5965 37.4749 78.0164 37.2721C78.4364 37.0693 78.7974 36.7665 79.0663 36.3915C79.6846 35.4936 79.9872 34.4233 79.9283 33.3424V33.3456ZM96.8311 33.2376C96.9276 35.006 96.3129 36.7412 95.1185 38.0724C94.6392 38.5867 94.053 38.9948 93.3991 39.2694C92.7453 39.544 92.039 39.6788 91.3276 39.6647C90.6402 39.7193 89.9505 39.5898 89.3326 39.2903C88.7147 38.9908 88.1919 38.5325 87.8201 37.9645V44.2497H85.0857V31.3182C85.0857 30.0499 85.0576 28.7267 84.9752 27.3762H87.3784L87.5432 29.2666H87.5993C88.0105 28.6466 88.5644 28.1292 89.2166 27.7559C89.8689 27.3826 90.6015 27.1637 91.3557 27.1167C92.11 27.0697 92.8651 27.196 93.5605 27.4853C94.256 27.7747 94.8725 28.2191 95.3609 28.7832C96.3713 30.0516 96.8918 31.6278 96.8311 33.2344V33.2376ZM94.0423 33.3456C94.0791 32.326 93.7999 31.3193 93.2412 30.4576C92.9775 30.0822 92.6222 29.777 92.2075 29.5696C91.7928 29.3622 91.3318 29.2592 90.8661 29.2699C90.2001 29.2701 89.5552 29.4982 89.0431 29.9145C88.4865 30.3479 88.1047 30.9599 87.9652 31.6421C87.8879 31.9047 87.8415 32.1751 87.8267 32.4479V34.4463C87.8033 35.2601 88.098 36.052 88.6509 36.6607C88.9182 36.9508 89.2467 37.1808 89.6138 37.3347C89.9809 37.4886 90.3778 37.5627 90.7771 37.5519C91.245 37.5711 91.7104 37.4749 92.1304 37.2721C92.5503 37.0693 92.9114 36.7665 93.1802 36.3915C93.7985 35.4936 94.1011 34.4233 94.0423 33.3424V33.3456ZM112.602 34.7219C112.624 35.3717 112.499 36.0183 112.237 36.6156C111.974 37.2129 111.58 37.7461 111.082 38.1772C109.777 39.2133 108.12 39.7311 106.442 39.6276C104.9 39.6901 103.371 39.3349 102.023 38.601L102.658 36.3867C103.853 37.0814 105.223 37.4369 106.614 37.4133C107.47 37.4664 108.319 37.2278 109.017 36.738C109.295 36.5242 109.518 36.2488 109.667 35.9345C109.815 35.6202 109.886 35.2759 109.872 34.9298C109.877 34.6135 109.816 34.2995 109.692 34.0071C109.569 33.7148 109.385 33.4502 109.153 33.2296C108.469 32.6478 107.67 32.2091 106.806 31.9403C103.823 30.8605 102.331 29.2677 102.331 27.1619C102.313 26.5232 102.446 25.8891 102.719 25.3086C102.992 24.7281 103.398 24.2169 103.905 23.8146C105.093 22.9113 106.573 22.4539 108.075 22.5253C109.41 22.4841 110.735 22.7525 111.942 23.3085L111.252 25.4681C110.249 24.95 109.127 24.6899 107.993 24.7122C107.176 24.6702 106.371 24.9199 105.728 25.4149C105.511 25.6052 105.337 25.8382 105.218 26.0987C105.099 26.3592 105.038 26.6413 105.038 26.9266C105.028 27.2369 105.093 27.5451 105.227 27.8264C105.361 28.1077 105.561 28.3542 105.811 28.5462C106.563 29.1033 107.403 29.5386 108.296 29.8355C109.523 30.2496 110.631 30.9435 111.529 31.8597C111.894 32.2418 112.177 32.6917 112.362 33.1827C112.547 33.6738 112.629 34.1961 112.603 34.7187L112.602 34.7219ZM121.632 29.4036H118.621V35.2344C118.621 36.7187 119.147 37.4487 120.223 37.4487C120.633 37.4668 121.043 37.4211 121.438 37.3134L121.52 39.3375C120.834 39.5543 120.115 39.6546 119.394 39.6341C118.928 39.66 118.463 39.587 118.029 39.4201C117.595 39.2532 117.203 38.9963 116.88 38.6671C116.183 37.7322 115.859 36.5801 115.969 35.4278V29.3811H114.177V27.3827H115.972V25.1957L118.652 24.4125V27.4085H121.662L121.632 29.4036ZM135.166 33.2908C135.226 34.9492 134.644 36.5687 133.536 37.8259C132.967 38.4333 132.27 38.9122 131.492 39.2292C130.715 39.5462 129.876 39.6937 129.035 39.6615C128.229 39.6928 127.426 39.5519 126.682 39.2488C125.938 38.9457 125.271 38.4876 124.726 37.9064C123.632 36.6855 123.059 35.1011 123.124 33.4794C123.054 31.8075 123.645 30.1735 124.776 28.9169C125.341 28.3222 126.032 27.8548 126.8 27.547C127.569 27.2393 128.396 27.0985 129.226 27.1345C130.035 27.1031 130.842 27.2437 131.591 27.5467C132.34 27.8497 133.012 28.3078 133.562 28.8895C134.658 30.0982 135.23 31.6757 135.16 33.2892L135.166 33.2908ZM132.349 33.344C132.375 32.3531 132.126 31.3738 131.631 30.5092C131.398 30.0709 131.044 29.7048 130.61 29.452C130.176 29.1992 129.678 29.0697 129.173 29.0781C128.66 29.0654 128.153 29.1925 127.709 29.4452C127.265 29.6979 126.902 30.0663 126.66 30.5092C126.148 31.3871 125.899 32.3877 125.941 33.3972C125.915 34.3881 126.164 35.3674 126.66 36.232C126.901 36.6688 127.259 37.0332 127.696 37.2863C128.133 37.5394 128.632 37.6716 129.14 37.6688C129.648 37.666 130.146 37.5283 130.58 37.2704C131.014 37.0125 131.368 36.6441 131.604 36.2046C132.119 35.3363 132.377 34.3456 132.351 33.3424L132.349 33.344ZM144.032 29.726C143.75 29.6725 143.464 29.6455 143.177 29.6454C142.747 29.6223 142.319 29.7068 141.932 29.891C141.546 30.0752 141.214 30.3529 140.968 30.6977C140.491 31.4 140.249 32.2304 140.277 33.0732V39.3585H137.543V31.1506C137.543 29.8823 137.515 28.6397 137.46 27.3714H139.836L139.946 29.6663H140.028C140.281 28.9203 140.751 28.263 141.382 27.7759C141.952 27.3681 142.637 27.1429 143.343 27.1313C143.574 27.1345 143.805 27.1522 144.034 27.1844L144.032 29.726ZM156.239 32.8299C156.243 33.2375 156.206 33.6446 156.129 34.045H147.953C147.931 34.5575 148.026 35.0683 148.231 35.5402C148.437 36.0121 148.748 36.4329 149.142 36.7719C149.901 37.3584 150.853 37.6556 151.82 37.6083C152.951 37.6228 154.076 37.4304 155.135 37.041L155.548 38.8766C154.239 39.3893 152.838 39.6372 151.428 39.6051C150.605 39.6528 149.782 39.5308 149.011 39.247C148.24 38.9633 147.539 38.5241 146.953 37.958C146.399 37.3651 145.969 36.6712 145.69 35.916C145.41 35.1608 145.285 34.3591 145.323 33.5567C145.255 31.9224 145.795 30.3195 146.842 29.0442C147.35 28.415 148.003 27.913 148.748 27.5798C149.493 27.2465 150.309 27.0917 151.128 27.128C151.907 27.0846 152.685 27.238 153.387 27.5736C154.088 27.9092 154.69 28.4157 155.133 29.0442C155.903 30.157 156.29 31.4809 156.237 32.8234L156.239 32.8299ZM153.643 32.1272C153.68 31.4077 153.498 30.6935 153.119 30.0757C152.896 29.7115 152.574 29.4151 152.188 29.2196C151.803 29.0241 151.37 28.9372 150.937 28.9685C150.51 28.9596 150.088 29.0534 149.707 29.2417C149.327 29.43 148.999 29.707 148.754 30.0483C148.294 30.6545 148.017 31.3747 147.953 32.1272H153.643ZM57.8319 16.8734C57.1763 16.8834 56.5208 16.8473 55.8705 16.7654V8.72031C56.6392 8.61292 57.4146 8.55906 58.1911 8.55915C61.3113 8.55915 62.7486 10.0708 62.7486 12.5285C62.7502 15.3359 61.0377 16.8734 57.8335 16.8734H57.8319ZM58.2736 9.58412C57.9126 9.57977 57.5518 9.60674 57.1956 9.6647V15.7662C57.4985 15.7939 57.803 15.803 58.1071 15.7936C58.5504 15.8349 58.9974 15.7776 59.4148 15.6259C59.8322 15.4743 60.2091 15.2323 60.5173 14.9181C60.8255 14.6039 61.0571 14.2256 61.1946 13.8115C61.3321 13.3974 61.372 12.9582 61.3113 12.5269C61.3597 12.1265 61.3143 11.7206 61.1786 11.3398C61.0428 10.9591 60.8203 10.6136 60.5278 10.3294C60.2353 10.0453 59.8804 9.82989 59.4901 9.69965C59.0998 9.5694 58.6844 9.52769 58.2752 9.57767L58.2736 9.58412ZM67.2219 16.9282C66.8228 16.9341 66.4269 16.8585 66.0595 16.7061C65.692 16.5538 65.3611 16.3281 65.088 16.0435C64.815 15.7589 64.6057 15.4216 64.4736 15.0533C64.3415 14.6851 64.2895 14.2939 64.321 13.9048C64.2864 13.5022 64.3393 13.097 64.4762 12.7158C64.6131 12.3346 64.8307 11.986 65.1151 11.6929C65.3995 11.3998 65.744 11.1688 66.1262 11.0151C66.5083 10.8613 66.9194 10.7883 67.3324 10.8009C67.7325 10.7909 68.1303 10.8638 68.4996 11.0148C68.869 11.1658 69.2015 11.3914 69.4753 11.677C69.7491 11.9625 69.9581 12.3014 70.0884 12.6715C70.2188 13.0416 70.2675 13.4344 70.2316 13.8243C70.2604 14.2253 70.2037 14.6279 70.065 15.0064C69.9262 15.3849 69.7085 15.7311 69.4257 16.023C69.1428 16.3148 68.801 16.546 68.4219 16.7019C68.0428 16.8577 67.6348 16.9348 67.2236 16.9282H67.2219ZM67.2779 11.7453C66.3121 11.7453 65.6759 12.6365 65.6759 13.8774C65.6759 15.0926 66.3105 15.9838 67.25 15.9838C68.1895 15.9838 68.8241 15.0394 68.8241 13.8516C68.8537 12.6397 68.2191 11.7453 67.2796 11.7453H67.2779ZM80.286 10.9089L78.4086 16.7944H77.1658L76.3928 14.2304C76.2 13.6099 76.0335 12.962 75.8984 12.3142H75.8703C75.7609 12.9654 75.5955 13.6064 75.3758 14.2304L74.5517 16.7944H73.3089L71.542 10.9089H72.9233L73.6138 13.7163C73.7786 14.3915 73.9171 15.0056 74.0276 15.6067H74.0555C74.166 15.1232 74.3045 14.4995 74.5501 13.7163L75.4055 10.9089H76.5098L77.3339 13.6631C77.5273 14.3378 77.6921 14.9857 77.8284 15.6067H77.8565C77.9522 14.9509 78.0904 14.3018 78.2701 13.6631L79.0152 10.9089H80.286ZM87.2185 16.7944H85.8999V13.4197C85.8999 12.3674 85.4862 11.8533 84.6852 11.8533C84.4998 11.859 84.3174 11.9008 84.1487 11.9761C83.9799 12.0514 83.8282 12.1588 83.7023 12.292C83.5764 12.4251 83.4788 12.5814 83.4152 12.7518C83.3516 12.9222 83.3234 13.1032 83.332 13.2844V16.7944H81.9787V12.5833C81.9787 12.0708 81.9787 11.5035 81.9227 10.9089H83.1095L83.1655 11.8275H83.1935C83.3923 11.5091 83.6727 11.247 84.0068 11.067C84.341 10.887 84.7174 10.7952 85.0988 10.8009C86.3696 10.8009 87.1971 11.7453 87.1971 13.2844L87.2185 16.7944ZM90.9188 16.7944H89.5656V8.18203H90.9188V16.7944ZM95.8075 16.9298C95.4086 16.9355 95.0129 16.8597 94.6456 16.7073C94.2783 16.5548 93.9476 16.3291 93.6747 16.0445C93.4018 15.7599 93.1927 15.4227 93.0607 15.0546C92.9287 14.6864 92.8768 14.2954 92.9083 13.9064C92.8737 13.504 92.9265 13.0989 93.0632 12.7178C93.2 12.3367 93.4177 11.9882 93.7019 11.6951C93.986 11.402 94.3304 11.171 94.7123 11.0172C95.0942 10.8633 95.5051 10.7902 95.918 10.8025C96.3182 10.7925 96.7159 10.8654 97.0853 11.0164C97.4546 11.1674 97.7871 11.393 98.0609 11.6786C98.3347 11.9641 98.5436 12.303 98.674 12.6731C98.8043 13.0432 98.8532 13.436 98.8172 13.8259C98.8458 14.2267 98.789 14.629 98.6502 15.0072C98.5115 15.3854 98.2939 15.7313 98.0112 16.0229C97.7286 16.3146 97.387 16.5457 97.0082 16.7015C96.6294 16.8573 96.2217 16.9345 95.8109 16.9282L95.8075 16.9298ZM95.862 11.7469C94.8961 11.7469 94.2598 12.6381 94.2598 13.879C94.2598 15.0942 94.8944 15.9854 95.8339 15.9854C96.7734 15.9854 97.408 15.041 97.408 13.8533C97.4146 12.6397 96.8047 11.7453 95.8652 11.7453L95.862 11.7469ZM104.092 16.7961L103.981 16.1208H103.953C103.749 16.3869 103.481 16.5996 103.173 16.7402C102.865 16.8808 102.526 16.9448 102.186 16.9266C101.947 16.9403 101.707 16.9057 101.481 16.8248C101.256 16.7439 101.05 16.6185 100.876 16.4564C100.703 16.2944 100.565 16.0991 100.472 15.8828C100.379 15.6664 100.332 15.4336 100.335 15.1989C100.335 13.7485 101.634 12.9846 103.871 12.9846V12.8766C103.871 12.0934 103.457 11.7163 102.628 11.7163C102.071 11.7018 101.522 11.8523 101.054 12.1482L100.777 11.2844C101.402 10.9193 102.122 10.7412 102.849 10.7719C104.423 10.7719 105.224 11.5777 105.224 13.2022V15.3617C105.216 15.831 105.244 16.3001 105.306 16.7654L104.092 16.7961ZM103.899 13.8533C102.415 13.8533 101.662 14.2046 101.662 15.041C101.648 15.1626 101.662 15.2856 101.703 15.4013C101.743 15.517 101.81 15.6225 101.897 15.7102C101.984 15.798 102.09 15.8659 102.207 15.909C102.324 15.9521 102.449 15.9694 102.574 15.9596C102.908 15.9681 103.233 15.8488 103.479 15.6271C103.725 15.4054 103.874 15.0986 103.892 14.7719L103.899 13.8533ZM111.715 16.7961L111.659 15.8516H111.631C111.451 16.1959 111.172 16.4814 110.829 16.6732C110.485 16.865 110.092 16.9547 109.697 16.9314C109.325 16.9078 108.962 16.8102 108.63 16.6446C108.299 16.4791 108.005 16.2491 107.767 15.9686C107.529 15.6882 107.352 15.3632 107.247 15.0136C107.142 14.664 107.111 14.2972 107.156 13.9355C107.107 13.5574 107.138 13.1736 107.246 12.8077C107.355 12.4418 107.539 12.1016 107.788 11.8081C108.037 11.5146 108.344 11.2741 108.691 11.1014C109.039 10.9287 109.419 10.8275 109.808 10.8041C110.141 10.7736 110.477 10.8325 110.779 10.9745C111.08 11.1165 111.337 11.3361 111.52 11.6099H111.548V8.18042H112.908V15.2006C112.908 15.7678 112.936 16.3077 112.964 16.7928L111.715 16.7961ZM111.522 13.3408C111.538 13.1482 111.514 12.9544 111.451 12.7712C111.388 12.5881 111.287 12.4194 111.155 12.2754C111.023 12.1315 110.863 12.0152 110.684 11.9338C110.505 11.8523 110.31 11.8074 110.113 11.8017C109.124 11.8017 108.511 12.6655 108.511 13.8807C108.511 15.0684 109.145 15.879 110.085 15.879C110.285 15.8709 110.482 15.8236 110.663 15.7399C110.844 15.6563 111.007 15.5379 111.14 15.3919C111.274 15.2459 111.377 15.0752 111.442 14.8898C111.507 14.7044 111.534 14.5082 111.52 14.3126L111.522 13.3408ZM121.382 16.9314C120.983 16.9371 120.587 16.8613 120.22 16.7089C119.853 16.5564 119.522 16.3307 119.249 16.0461C118.976 15.7615 118.767 15.4243 118.635 15.0562C118.503 14.688 118.451 14.297 118.483 13.9081C118.448 13.5056 118.501 13.1005 118.638 12.7194C118.774 12.3384 118.992 11.9898 119.276 11.6967C119.56 11.4037 119.905 11.1726 120.287 11.0188C120.668 10.8649 121.079 10.7918 121.492 10.8041C121.893 10.7939 122.29 10.8666 122.66 11.0175C123.03 11.1684 123.362 11.394 123.636 11.6796C123.91 11.9651 124.119 12.3041 124.25 12.6743C124.38 13.0445 124.429 13.4375 124.393 13.8275C124.422 14.2283 124.364 14.6305 124.225 15.0087C124.087 15.3868 123.869 15.7326 123.586 16.0241C123.303 16.3156 122.961 16.5465 122.583 16.7021C122.204 16.8578 121.796 16.9347 121.385 16.9282L121.382 16.9314ZM121.438 11.7485C120.472 11.7485 119.864 12.6397 119.864 13.8807C119.864 15.0958 120.498 15.987 121.438 15.987C122.377 15.987 123.012 15.0426 123.012 13.8549C122.987 12.6397 122.379 11.7453 121.441 11.7453L121.438 11.7485ZM131.601 16.7977H130.248V13.423C130.248 12.3706 129.834 11.8565 129.033 11.8565C128.85 11.8636 128.669 11.9066 128.503 11.9828C128.337 12.0591 128.188 12.167 128.065 12.3004C127.942 12.4337 127.848 12.5898 127.788 12.7593C127.727 12.9289 127.703 13.1085 127.714 13.2876V16.7977H126.361V12.5865C126.361 12.0741 126.361 11.5068 126.305 10.9121H127.493L127.548 11.8307H127.576C127.775 11.5124 128.055 11.2502 128.389 11.0702C128.723 10.8902 129.1 10.7985 129.481 10.8041C130.752 10.8041 131.581 11.7485 131.581 13.2876V16.7977H131.601ZM140.605 11.8839H139.142V14.7348C139.142 15.4633 139.391 15.8146 139.915 15.8146C140.119 15.8141 140.322 15.7963 140.523 15.7614L140.551 16.7606C140.213 16.8717 139.857 16.9177 139.501 16.896C138.451 16.896 137.816 16.3287 137.816 14.8444V11.8742H136.933V10.9073H137.816V9.82747L139.135 9.44874V10.8992H140.599L140.605 11.8839ZM147.704 16.7977H146.386V13.4455C146.386 12.3931 145.972 11.8533 145.171 11.8533C144.985 11.8478 144.799 11.8809 144.627 11.9506C144.455 12.0203 144.299 12.125 144.172 12.2576C144.044 12.3903 143.946 12.5479 143.885 12.7202C143.824 12.8924 143.801 13.0754 143.818 13.257V16.8202H142.499V8.18042H143.818V11.7179H143.846C144.032 11.4105 144.299 11.1581 144.62 10.9878C144.942 10.8175 145.304 10.7357 145.669 10.7509C146.94 10.7509 147.713 11.7179 147.713 13.2618L147.704 16.7977ZM154.968 14.1788H150.937C150.928 14.421 150.972 14.6622 151.066 14.8863C151.16 15.1104 151.302 15.3123 151.482 15.4785C151.663 15.6446 151.877 15.7712 152.112 15.8497C152.346 15.9283 152.595 15.9569 152.842 15.9338C153.397 15.9321 153.948 15.8406 154.472 15.6631L154.693 16.5817C154.053 16.832 153.367 16.9516 152.677 16.933C152.271 16.964 151.864 16.9083 151.482 16.7696C151.101 16.6309 150.755 16.4126 150.468 16.1299C150.182 15.8472 149.962 15.507 149.824 15.1327C149.685 14.7585 149.632 14.3593 149.667 13.9628C149.626 13.5696 149.668 13.1723 149.791 12.7957C149.914 12.4192 150.116 12.0717 150.383 11.775C150.65 11.4783 150.977 11.2389 151.344 11.0718C151.71 10.9047 152.108 10.8136 152.512 10.8041C152.874 10.8032 153.232 10.8781 153.561 11.0237C153.891 11.1694 154.184 11.3824 154.423 11.6484C154.661 11.9145 154.838 12.2274 154.942 12.566C155.046 12.9046 155.075 13.2612 155.026 13.6115C155.032 13.8006 155.013 13.9896 154.97 14.174L154.968 14.1788ZM153.753 13.2344C153.753 12.3158 153.284 11.6679 152.435 11.6679C152.033 11.6971 151.657 11.8756 151.385 12.1668C151.113 12.458 150.965 12.84 150.971 13.2344H153.753Z" fill="white"/>
</g>
<defs>
<linearGradient id="paint0_linear" x1="36.9576" y1="44.35" x2="36.9576" y2="54.1" gradientUnits="userSpaceOnUse">
<stop stop-color="#1A1A1A" stop-opacity="0.102"/>
<stop offset="0.123" stop-color="#212121" stop-opacity="0.153"/>
<stop offset="0.308" stop-color="#353535" stop-opacity="0.227"/>
<stop offset="0.532" stop-color="#575757" stop-opacity="0.318"/>
<stop offset="0.783" stop-color="#858585" stop-opacity="0.42"/>
<stop offset="1" stop-color="#B3B3B3" stop-opacity="0.51"/>
</linearGradient>
<clipPath id="clip0">
<rect width="172.565" height="50" fill="white"/>
</clipPath>
</defs>
</svg>
