<svg width="53" height="40" viewBox="0 0 53 40" fill="none" xmlns="http://www.w3.org/2000/svg">
<g clip-path="url(#clip0)">
<path d="M19.9912 40C31.0321 40 39.9825 31.0457 39.9825 20C39.9825 8.95431 31.0321 0 19.9912 0C8.95038 0 0 8.95431 0 20C0 31.0457 8.95038 40 19.9912 40Z" fill="#FF476C"/>
<path d="M40.9124 8.37207C43.3032 8.37207 45.6402 9.08131 47.628 10.4101C49.6158 11.7389 51.1651 13.6276 52.08 15.8373C52.9949 18.047 53.2343 20.4785 52.7679 22.8243C52.3015 25.1701 51.1502 27.3249 49.4597 29.0162C47.7692 30.7074 45.6154 31.8591 43.2706 32.3258C40.9258 32.7924 38.4954 32.5529 36.2867 31.6376C34.0779 30.7223 32.1901 29.1723 30.8619 27.1836C29.5336 25.1949 28.8247 22.8569 28.8247 20.4651C28.8247 17.2578 30.0982 14.1819 32.3651 11.914C34.632 9.64615 37.7066 8.37207 40.9124 8.37207V8.37207Z" fill="#83E5D6"/>
</g>
<defs>
<clipPath id="clip0">
<rect width="53" height="40" fill="white"/>
</clipPath>
</defs>
</svg>
